<svg width="1271" height="637" viewBox="0 0 1271 637" fill="none" xmlns="http://www.w3.org/2000/svg">
<g opacity="0.92">
<path opacity="0.92" d="M712.01 328.074H704.13C694.399 328.074 686.51 335.964 686.51 345.696V346.746C686.51 356.478 694.399 364.368 704.13 364.368H712.01C721.741 364.368 729.63 356.478 729.63 346.746V345.696C729.63 335.964 721.741 328.074 712.01 328.074Z" fill="#07213F"/>
<path opacity="0.92" d="M130.39 400.651H84.12C74.3887 400.651 66.5 408.541 66.5 418.273V419.323C66.5 429.055 74.3887 436.945 84.12 436.945H130.39C140.121 436.945 148.01 429.055 148.01 419.323V418.273C148.01 408.541 140.121 400.651 130.39 400.651Z" fill="#07213F"/>
<path opacity="0.92" d="M668.89 473.229H622.62C612.889 473.229 605 481.118 605 490.85V491.901C605 501.633 612.889 509.522 622.62 509.522H668.89C678.621 509.522 686.51 501.633 686.51 491.901V490.85C686.51 481.118 678.621 473.229 668.89 473.229Z" fill="#07213F"/>
<path opacity="0.92" d="M171.41 545.806H125.14C115.409 545.806 107.52 553.695 107.52 563.428V564.478C107.52 574.21 115.409 582.1 125.14 582.1H171.41C181.141 582.1 189.03 574.21 189.03 564.478V563.428C189.03 553.695 181.141 545.806 171.41 545.806Z" fill="#07213F"/>
<path opacity="0.92" d="M533.48 528.194V527.144C533.48 522.47 535.336 517.988 538.641 514.684C541.945 511.379 546.427 509.522 551.1 509.522V509.522C553.414 509.522 555.705 509.066 557.843 508.181C559.981 507.295 561.923 505.997 563.559 504.361C565.195 502.725 566.493 500.782 567.379 498.644C568.264 496.506 568.72 494.215 568.72 491.901V490.9C568.72 486.227 566.864 481.745 563.559 478.44C560.255 475.135 555.773 473.279 551.1 473.279H469.1C466.787 473.28 464.497 472.825 462.359 471.941C460.222 471.056 458.28 469.759 456.645 468.123C455.009 466.488 453.712 464.546 452.828 462.408C451.943 460.271 451.489 457.98 451.49 455.667V454.607C451.489 452.294 451.943 450.003 452.828 447.866C453.712 445.728 455.009 443.786 456.645 442.15C458.28 440.515 460.222 439.218 462.359 438.333C464.497 437.448 466.787 436.994 469.1 436.995H668.9C671.214 436.995 673.504 436.539 675.641 435.653C677.779 434.768 679.72 433.47 681.356 431.833C682.991 430.197 684.288 428.254 685.172 426.116C686.057 423.978 686.511 421.687 686.51 419.373V418.373C686.511 416.059 686.057 413.768 685.172 411.63C684.288 409.492 682.991 407.55 681.356 405.913C679.72 404.277 677.779 402.979 675.641 402.093C673.504 401.207 671.214 400.751 668.9 400.751H364.41C362.092 400.751 359.798 400.294 357.657 399.405C355.517 398.516 353.573 397.214 351.937 395.572C350.301 393.93 349.005 391.981 348.123 389.838C347.242 387.694 346.792 385.397 346.8 383.08V381.98C346.799 379.666 347.253 377.376 348.138 375.238C349.022 373.101 350.319 371.159 351.955 369.523C353.59 367.888 355.532 366.59 357.669 365.706C359.807 364.821 362.097 364.366 364.41 364.368H627.88C630.193 364.368 632.484 363.912 634.621 363.026C636.759 362.14 638.7 360.842 640.336 359.206C641.971 357.569 643.268 355.627 644.152 353.489C645.037 351.351 645.491 349.06 645.49 346.746V345.746C645.498 343.428 645.048 341.131 644.167 338.988C643.285 336.844 641.989 334.895 640.353 333.254C638.717 331.612 636.773 330.309 634.633 329.42C632.493 328.532 630.198 328.074 627.88 328.074H116.72C114.407 328.074 112.116 328.53 109.979 329.416C107.841 330.301 105.9 331.6 104.264 333.236C102.629 334.872 101.332 336.815 100.448 338.953C99.5632 341.091 99.1087 343.382 99.11 345.696V346.696C99.1087 349.01 99.5632 351.301 100.448 353.439C101.332 355.577 102.629 357.519 104.264 359.156C105.9 360.792 107.841 362.09 109.979 362.976C112.116 363.862 114.407 364.318 116.72 364.318H259.24C261.553 364.316 263.843 364.771 265.981 365.656C268.118 366.54 270.06 367.837 271.695 369.473C273.331 371.109 274.628 373.051 275.512 375.188C276.397 377.326 276.851 379.616 276.85 381.929V383.08C276.851 385.393 276.397 387.685 275.512 389.822C274.628 391.96 273.331 393.903 271.696 395.539C270.06 397.176 268.119 398.474 265.981 399.36C263.844 400.246 261.553 400.701 259.24 400.701H198.76C194.087 400.701 189.605 402.558 186.301 405.863C182.996 409.167 181.14 413.65 181.14 418.323V419.323C181.14 423.997 182.996 428.479 186.301 431.784C189.605 435.088 194.087 436.945 198.76 436.945H242.93C245.243 436.944 247.534 437.398 249.672 438.283C251.81 439.167 253.752 440.464 255.389 442.1C257.025 443.735 258.323 445.677 259.209 447.815C260.094 449.952 260.55 452.243 260.55 454.557V455.617C260.55 457.931 260.094 460.222 259.209 462.359C258.323 464.496 257.025 466.438 255.389 468.074C253.752 469.709 251.81 471.006 249.672 471.891C247.534 472.775 245.243 473.23 242.93 473.229H18.38C16.0666 473.229 13.7758 473.685 11.6386 474.57C9.50142 475.456 7.55969 476.754 5.92432 478.391C4.28895 480.027 2.99201 481.97 2.10761 484.108C1.22321 486.246 0.768709 488.537 0.770022 490.85V491.851C0.768709 494.164 1.22321 496.455 2.10761 498.593C2.99201 500.731 4.28895 502.674 5.92432 504.31C7.55969 505.947 9.50142 507.245 11.6386 508.131C13.7758 509.016 16.0666 509.472 18.38 509.472H378.08C382.753 509.472 387.235 511.329 390.539 514.634C393.844 517.938 395.7 522.42 395.7 527.094V528.144C395.7 530.458 395.244 532.749 394.359 534.886C393.473 537.024 392.175 538.966 390.539 540.601C388.902 542.237 386.96 543.534 384.822 544.418C382.684 545.303 380.393 545.757 378.08 545.756H348.64C346.32 545.753 344.023 546.209 341.879 547.096C339.736 547.984 337.789 549.286 336.15 550.928C334.511 552.57 333.213 554.519 332.329 556.664C331.445 558.809 330.993 561.108 331 563.428V564.428C330.993 566.748 331.445 569.046 332.329 571.191C333.213 573.336 334.511 575.286 336.15 576.928C337.789 578.57 339.736 579.872 341.879 580.759C344.023 581.647 346.32 582.102 348.64 582.1H780.38C785.053 582.1 789.535 580.243 792.839 576.938C796.144 573.634 798 569.151 798 564.478V563.478C798 558.804 796.144 554.322 792.839 551.017C789.535 547.713 785.053 545.856 780.38 545.856H551.1C548.782 545.857 546.487 545.401 544.346 544.513C542.205 543.626 540.261 542.324 538.624 540.683C536.987 539.043 535.69 537.095 534.807 534.952C533.924 532.808 533.473 530.512 533.48 528.194Z" fill="#07213F"/>
</g>
<g opacity="0.86">
<path opacity="0.86" d="M988.39 454.657H942.12C932.389 454.657 924.5 462.546 924.5 472.279V473.329C924.5 483.061 932.389 490.95 942.12 490.95H988.39C998.121 490.95 1006.01 483.061 1006.01 473.329V472.279C1006.01 462.546 998.121 454.657 988.39 454.657Z" fill="#07213F"/>
<path opacity="0.86" d="M1029.41 599.811H983.14C973.409 599.811 965.52 607.701 965.52 617.433V618.483C965.52 628.215 973.409 636.105 983.14 636.105H1029.41C1039.14 636.105 1047.03 628.215 1047.03 618.483V617.433C1047.03 607.701 1039.14 599.811 1029.41 599.811Z" fill="#07213F"/>
<path opacity="0.86" d="M1391.48 582.199V581.149C1391.48 576.476 1393.34 571.994 1396.64 568.689C1399.95 565.384 1404.43 563.528 1409.1 563.528C1413.77 563.528 1418.25 561.671 1421.56 558.366C1424.86 555.062 1426.72 550.579 1426.72 545.906V544.906C1426.72 540.232 1424.86 535.75 1421.56 532.445C1418.25 529.141 1413.77 527.284 1409.1 527.284H1327.1C1324.79 527.285 1322.5 526.831 1320.36 525.946C1318.22 525.061 1316.28 523.764 1314.64 522.129C1313.01 520.493 1311.71 518.551 1310.83 516.414C1309.94 514.276 1309.49 511.985 1309.49 509.672V508.612C1309.49 506.299 1309.94 504.008 1310.83 501.871C1311.71 499.734 1313.01 497.792 1314.64 496.156C1316.28 494.52 1318.22 493.223 1320.36 492.338C1322.5 491.454 1324.79 490.999 1327.1 491H1526.9C1529.21 491 1531.5 490.545 1533.64 489.659C1535.78 488.773 1537.72 487.475 1539.36 485.838C1540.99 484.202 1542.29 482.259 1543.17 480.121C1544.06 477.984 1544.51 475.692 1544.51 473.379V472.379C1544.51 470.065 1544.06 467.774 1543.17 465.636C1542.29 463.498 1540.99 461.555 1539.36 459.919C1537.72 458.282 1535.78 456.984 1533.64 456.098C1531.5 455.213 1529.21 454.757 1526.9 454.757H1222.41C1220.09 454.757 1217.8 454.299 1215.66 453.41C1213.52 452.522 1211.57 451.219 1209.94 449.577C1208.3 447.935 1207 445.987 1206.12 443.843C1205.24 441.7 1204.79 439.403 1204.8 437.085V435.985C1204.8 433.672 1205.25 431.381 1206.14 429.244C1207.02 427.106 1208.32 425.164 1209.96 423.529C1211.59 421.893 1213.53 420.596 1215.67 419.711C1217.81 418.826 1220.1 418.372 1222.41 418.373H1485.88C1488.19 418.373 1490.48 417.917 1492.62 417.032C1494.76 416.146 1496.7 414.848 1498.34 413.211C1499.97 411.575 1501.27 409.632 1502.15 407.494C1503.04 405.356 1503.49 403.065 1503.49 400.751V399.751C1503.5 397.433 1503.05 395.137 1502.17 392.993C1501.29 390.849 1499.99 388.901 1498.35 387.259C1496.72 385.617 1494.77 384.315 1492.63 383.426C1490.49 382.537 1488.2 382.08 1485.88 382.08H974.72C972.407 382.08 970.116 382.535 967.979 383.421C965.842 384.307 963.9 385.605 962.264 387.241C960.629 388.878 959.332 390.821 958.448 392.958C957.563 395.096 957.109 397.388 957.11 399.701V400.701C957.109 403.015 957.563 405.306 958.448 407.444C959.332 409.582 960.629 411.525 962.264 413.161C963.9 414.798 965.842 416.096 967.979 416.982C970.116 417.867 972.407 418.323 974.72 418.323H1117.24C1119.55 418.322 1121.84 418.776 1123.98 419.661C1126.12 420.546 1128.06 421.843 1129.7 423.479C1131.33 425.114 1132.63 427.056 1133.51 429.194C1134.4 431.331 1134.85 433.622 1134.85 435.935V437.085C1134.85 439.399 1134.4 441.69 1133.51 443.828C1132.63 445.966 1131.33 447.908 1129.7 449.545C1128.06 451.181 1126.12 452.48 1123.98 453.365C1121.84 454.251 1119.55 454.707 1117.24 454.707H1056.76C1052.09 454.707 1047.61 456.563 1044.3 459.868C1041 463.173 1039.14 467.655 1039.14 472.329V473.329C1039.14 475.643 1039.6 477.934 1040.48 480.072C1041.37 482.21 1042.66 484.153 1044.3 485.789C1045.94 487.425 1047.88 488.723 1050.02 489.609C1052.15 490.495 1054.45 490.95 1056.76 490.95H1100.93C1103.24 490.949 1105.53 491.404 1107.67 492.288C1109.81 493.173 1111.75 494.47 1113.39 496.105C1115.03 497.741 1116.32 499.683 1117.21 501.82C1118.09 503.958 1118.55 506.248 1118.55 508.562V509.622C1118.55 511.936 1118.09 514.227 1117.21 516.364C1116.32 518.502 1115.03 520.444 1113.39 522.079C1111.75 523.715 1109.81 525.012 1107.67 525.896C1105.53 526.781 1103.24 527.235 1100.93 527.234H876.38C874.067 527.234 871.776 527.69 869.639 528.576C867.502 529.461 865.56 530.759 863.924 532.396C862.289 534.032 860.992 535.975 860.108 538.113C859.223 540.251 858.769 542.542 858.77 544.856V545.856C858.769 548.17 859.223 550.461 860.108 552.599C860.992 554.737 862.289 556.679 863.924 558.316C865.56 559.952 867.502 561.25 869.639 562.136C871.776 563.022 874.067 563.478 876.38 563.478H1236.08C1240.75 563.478 1245.23 565.334 1248.54 568.639C1251.84 571.944 1253.7 576.426 1253.7 581.099V582.149C1253.7 584.463 1253.24 586.754 1252.36 588.892C1251.47 591.029 1250.17 592.971 1248.54 594.606C1246.9 596.242 1244.96 597.539 1242.82 598.424C1240.68 599.308 1238.39 599.763 1236.08 599.761H1206.64C1201.97 599.761 1197.49 601.618 1194.18 604.923C1190.88 608.227 1189.02 612.709 1189.02 617.383V618.433C1189.02 623.107 1190.88 627.589 1194.18 630.894C1197.49 634.198 1201.97 636.055 1206.64 636.055H1638.38C1643.05 636.055 1647.53 634.198 1650.84 630.894C1654.14 627.589 1656 623.107 1656 618.433V617.383C1656 612.709 1654.14 608.227 1650.84 604.923C1647.53 601.618 1643.05 599.761 1638.38 599.761H1409.1C1404.44 599.764 1399.96 597.916 1396.66 594.624C1393.36 591.332 1391.49 586.863 1391.48 582.199V582.199Z" fill="#07213F"/>
</g>
<g opacity="0.92">
<path opacity="0.92" d="M1176.39 72.6186H1130.12C1120.39 72.6186 1112.5 80.5081 1112.5 90.2404V91.2905C1112.5 101.023 1120.39 108.912 1130.12 108.912H1176.39C1186.12 108.912 1194.01 101.023 1194.01 91.2905V90.2404C1194.01 80.5081 1186.12 72.6186 1176.39 72.6186Z" fill="#07213F"/>
<path opacity="0.92" d="M1217.41 217.773H1171.14C1161.41 217.773 1153.52 225.663 1153.52 235.395V236.445C1153.52 246.177 1161.41 254.067 1171.14 254.067H1217.41C1227.14 254.067 1235.03 246.177 1235.03 236.445V235.395C1235.03 225.663 1227.14 217.773 1217.41 217.773Z" fill="#07213F"/>
<path opacity="0.92" d="M1579.48 200.161V199.111C1579.48 194.438 1581.34 189.955 1584.64 186.651C1587.95 183.346 1592.43 181.489 1597.1 181.489V181.489C1601.77 181.489 1606.26 179.633 1609.56 176.328C1612.86 173.023 1614.72 168.541 1614.72 163.868V162.868C1614.72 158.194 1612.86 153.712 1609.56 150.407C1606.26 147.102 1601.77 145.246 1597.1 145.246H1515.1C1512.79 145.247 1510.5 144.792 1508.36 143.908C1506.22 143.023 1504.28 141.726 1502.65 140.09C1501.01 138.455 1499.71 136.513 1498.83 134.375C1497.94 132.238 1497.49 129.947 1497.49 127.634V126.574C1497.49 124.261 1497.94 121.97 1498.83 119.833C1499.71 117.695 1501.01 115.753 1502.65 114.118C1504.28 112.482 1506.22 111.185 1508.36 110.3C1510.5 109.416 1512.79 108.961 1515.1 108.962H1714.9C1717.21 108.962 1719.5 108.506 1721.64 107.621C1723.78 106.735 1725.72 105.437 1727.36 103.8C1728.99 102.164 1730.29 100.221 1731.17 98.0832C1732.06 95.9453 1732.51 93.6541 1732.51 91.3404V90.2903C1732.51 87.9767 1732.06 85.6854 1731.17 83.5475C1730.29 81.4096 1728.99 79.4669 1727.36 77.8304C1725.72 76.194 1723.78 74.8958 1721.64 74.0101C1719.5 73.1244 1717.21 72.6686 1714.9 72.6686H1410.41C1408.1 72.6686 1405.81 72.2127 1403.67 71.327C1401.53 70.4413 1399.59 69.1431 1397.95 67.5067C1396.32 65.8702 1395.02 63.9275 1394.14 61.7896C1393.25 59.6517 1392.8 57.3605 1392.8 55.0468V53.9467C1392.8 51.6335 1393.25 49.3428 1394.14 47.2054C1395.02 45.0681 1396.32 43.126 1397.96 41.4904C1399.59 39.8547 1401.53 38.5575 1403.67 37.6729C1405.81 36.7883 1408.1 36.3336 1410.41 36.3349H1673.88C1676.19 36.3349 1678.48 35.879 1680.62 34.9934C1682.76 34.1077 1684.7 32.8095 1686.34 31.173C1687.97 29.5366 1689.27 27.5939 1690.15 25.456C1691.04 23.3181 1691.49 21.0268 1691.49 18.7132V17.6631C1691.49 15.3494 1691.04 13.0582 1690.15 10.9203C1689.27 8.78236 1687.97 6.83967 1686.34 5.20321C1684.7 3.56675 1682.76 2.26858 1680.62 1.38289C1678.48 0.497186 1676.19 0.0413204 1673.88 0.0413208H1162.72C1160.41 0.0413204 1158.12 0.497186 1155.98 1.38289C1153.84 2.26858 1151.9 3.56675 1150.26 5.20321C1148.63 6.83967 1147.33 8.78236 1146.45 10.9203C1145.56 13.0582 1145.11 15.3494 1145.11 17.6631V18.7132C1145.11 21.0268 1145.56 23.3181 1146.45 25.456C1147.33 27.5939 1148.63 29.5366 1150.26 31.173C1151.9 32.8095 1153.84 34.1077 1155.98 34.9934C1158.12 35.879 1160.41 36.3349 1162.72 36.3349H1305.24C1307.55 36.3336 1309.84 36.7883 1311.98 37.6729C1314.12 38.5575 1316.06 39.8547 1317.7 41.4904C1319.33 43.126 1320.63 45.0681 1321.51 47.2054C1322.4 49.3428 1322.85 51.6335 1322.85 53.9467V55.0468C1322.85 57.3605 1322.4 59.6517 1321.51 61.7896C1320.63 63.9275 1319.33 65.8702 1317.7 67.5067C1316.06 69.1431 1314.12 70.4413 1311.98 71.327C1309.84 72.2127 1307.55 72.6686 1305.24 72.6686H1244.76C1240.09 72.6686 1235.61 74.5251 1232.3 77.8299C1229 81.1346 1227.14 85.6167 1227.14 90.2903V91.3404C1227.14 96.014 1229 100.496 1232.3 103.801C1235.61 107.106 1240.09 108.962 1244.76 108.962H1288.93C1291.24 108.961 1293.53 109.415 1295.67 110.3C1297.81 111.184 1299.75 112.481 1301.39 114.117C1303.03 115.753 1304.32 117.694 1305.21 119.832C1306.09 121.969 1306.55 124.26 1306.55 126.574V127.634C1306.55 129.948 1306.09 132.239 1305.21 134.376C1304.32 136.513 1303.03 138.455 1301.39 140.091C1299.75 141.727 1297.81 143.024 1295.67 143.908C1293.53 144.793 1291.24 145.247 1288.93 145.246H1064.38C1062.07 145.246 1059.78 145.702 1057.64 146.587C1055.5 147.473 1053.56 148.771 1051.92 150.408C1050.29 152.044 1048.99 153.987 1048.11 156.125C1047.22 158.263 1046.77 160.554 1046.77 162.868V163.868C1046.77 166.181 1047.22 168.473 1048.11 170.61C1048.99 172.748 1050.29 174.691 1051.92 176.328C1053.56 177.964 1055.5 179.262 1057.64 180.148C1059.78 181.034 1062.07 181.489 1064.38 181.489H1424.08C1428.75 181.489 1433.24 183.346 1436.54 186.651C1439.84 189.955 1441.7 194.438 1441.7 199.111V200.161C1441.7 202.475 1441.24 204.766 1440.36 206.903C1439.47 209.041 1438.18 210.983 1436.54 212.618C1434.9 214.254 1432.96 215.551 1430.82 216.435C1428.68 217.32 1426.39 217.774 1424.08 217.773H1394.64C1392.32 217.77 1390.03 218.224 1387.89 219.109C1385.75 219.993 1383.81 221.291 1382.17 222.927C1380.53 224.564 1379.23 226.507 1378.34 228.647C1377.46 230.786 1377 233.079 1377 235.395V236.395C1376.99 238.715 1377.45 241.013 1378.33 243.158C1379.21 245.303 1380.51 247.253 1382.15 248.895C1383.79 250.537 1385.74 251.839 1387.88 252.726C1390.02 253.614 1392.32 254.069 1394.64 254.067H1826.38C1831.05 254.067 1835.53 252.21 1838.84 248.905C1842.14 245.601 1844 241.118 1844 236.445V235.445C1844 230.771 1842.14 226.289 1838.84 222.984C1835.53 219.68 1831.05 217.823 1826.38 217.823H1597.1C1594.78 217.824 1592.49 217.368 1590.35 216.48C1588.21 215.593 1586.26 214.291 1584.62 212.651C1582.99 211.01 1581.69 209.062 1580.81 206.919C1579.92 204.776 1579.47 202.479 1579.48 200.161Z" fill="#07213F"/>
</g>
</svg>
