<svg width="382" height="122" viewBox="0 0 382 122" fill="none" xmlns="http://www.w3.org/2000/svg">
<g opacity="0.93">
<path opacity="0.93" d="M45.7868 0.588898H42.0233C37.3756 0.588898 33.6079 4.35796 33.6079 9.00734V9.50901C33.6079 14.1584 37.3756 17.9274 42.0233 17.9274H45.7868C50.4345 17.9274 54.2022 14.1584 54.2022 9.50901V9.00734C54.2022 4.35796 50.4345 0.588898 45.7868 0.588898Z" fill="#F8F9F4"/>
<path opacity="0.93" d="M341.906 35.2612H319.807C315.16 35.2612 311.392 39.0303 311.392 43.6797V44.1813C311.392 48.8307 315.16 52.5998 319.807 52.5998H341.906C346.554 52.5998 350.322 48.8307 350.322 44.1813V43.6797C350.322 39.0303 346.554 35.2612 341.906 35.2612Z" fill="#F8F9F4"/>
<path opacity="0.93" d="M84.7164 69.9336H62.6176C57.9699 69.9336 54.2022 73.7026 54.2022 78.352V78.8537C54.2022 83.503 57.9699 87.2721 62.6176 87.2721H84.7164C89.3641 87.2721 93.1317 83.503 93.1317 78.8537V78.352C93.1317 73.7026 89.3641 69.9336 84.7164 69.9336Z" fill="#F8F9F4"/>
<path opacity="0.93" d="M322.315 104.606H300.216C295.568 104.606 291.801 108.375 291.801 113.024V113.526C291.801 118.175 295.568 121.944 300.216 121.944H322.315C326.963 121.944 330.73 118.175 330.73 113.526V113.024C330.73 108.375 326.963 104.606 322.315 104.606Z" fill="#F8F9F4"/>
<path opacity="0.93" d="M127.29 96.1922V95.6906C127.291 94.5853 127.073 93.4907 126.651 92.4693C126.229 91.448 125.609 90.5199 124.828 89.7381C124.047 88.9563 123.12 88.3362 122.099 87.913C121.078 87.4899 119.984 87.2721 118.879 87.2721V87.2721C116.647 87.2721 114.507 86.3852 112.929 84.8064C111.351 83.2277 110.464 81.0864 110.464 78.8537V78.352C110.464 76.1193 111.351 73.978 112.929 72.3993C114.507 70.8205 116.647 69.9336 118.879 69.9336H158.043C159.148 69.9342 160.242 69.717 161.263 69.2945C162.284 68.8719 163.212 68.2523 163.993 67.471C164.775 66.6896 165.395 65.7619 165.818 64.7408C166.241 63.7197 166.458 62.6252 166.458 61.5199V61.0135C166.458 59.9082 166.241 58.8137 165.818 57.7926C165.395 56.7715 164.775 55.8437 163.993 55.0624C163.212 54.2811 162.284 53.6614 161.263 53.2389C160.242 52.8163 159.148 52.5992 158.043 52.5998H62.6176C60.3857 52.5998 58.2452 51.7128 56.667 50.1341C55.0888 48.5553 54.2022 46.4141 54.2022 44.1813V43.6797C54.2022 41.447 55.0888 39.3057 56.667 37.7269C58.2452 36.1482 60.3857 35.2612 62.6176 35.2612H208.038C210.269 35.265 212.409 34.3831 213.99 32.809C215.57 31.235 216.462 29.0977 216.468 26.8667V26.3889C216.468 25.2836 216.251 24.1891 215.828 23.168C215.405 22.1469 214.785 21.2192 214.003 20.4378C213.222 19.6565 212.294 19.0369 211.273 18.6143C210.252 18.1918 209.158 17.9746 208.053 17.9752H82.2089C79.977 17.9752 77.8365 17.0883 76.2583 15.5095C74.6801 13.9308 73.7935 11.7895 73.7935 9.55679V9.07901C73.7841 7.96747 73.9947 6.86506 74.4134 5.8354C74.8321 4.80574 75.4505 3.86922 76.2329 3.07989C77.0152 2.29056 77.9461 1.66404 78.9718 1.2365C79.9975 0.808962 81.0977 0.588857 82.2089 0.588898H326.317C328.549 0.588898 330.69 1.47584 332.268 3.0546C333.846 4.63337 334.733 6.77463 334.733 9.00734V9.48512C334.736 10.5927 334.52 11.6899 334.099 12.7141C333.677 13.7382 333.058 14.6691 332.276 15.4533C331.494 16.2376 330.566 16.8598 329.543 17.2844C328.521 17.7089 327.424 17.9275 326.317 17.9275H258.273C257.168 17.9268 256.074 18.144 255.053 18.5665C254.032 18.9891 253.104 19.6087 252.323 20.3901C251.541 21.1714 250.921 22.0991 250.498 23.1202C250.075 24.1413 249.858 25.2358 249.858 26.3411V26.8189C249.858 29.0516 250.744 31.1929 252.322 32.7716C253.901 34.3504 256.041 35.2373 258.273 35.2373H287.154C288.259 35.2373 289.353 35.4551 290.373 35.8783C291.394 36.3014 292.321 36.9216 293.103 37.7033C293.884 38.4851 294.503 39.4132 294.925 40.4346C295.348 41.4559 295.565 42.5505 295.564 43.6558V44.1575C295.568 45.2648 295.353 46.3619 294.932 47.386C294.511 48.4101 293.892 49.341 293.111 50.1254C292.33 50.9097 291.401 51.532 290.379 51.9566C289.357 52.3812 288.261 52.5998 287.154 52.5998H266.053C264.948 52.5992 263.854 52.8164 262.834 53.239C261.813 53.6616 260.886 54.2813 260.104 55.0627C259.323 55.8441 258.704 56.7719 258.281 57.7929C257.859 58.814 257.642 59.9084 257.642 61.0135V61.5199C257.642 62.625 257.859 63.7193 258.281 64.7404C258.704 65.7615 259.323 66.6893 260.104 67.4707C260.886 68.2521 261.813 68.8718 262.834 69.2944C263.854 69.717 264.948 69.9342 266.053 69.9336H373.299C374.405 69.9329 375.499 70.1502 376.521 70.573C377.543 70.9958 378.471 71.6158 379.253 72.3976C380.035 73.1794 380.655 74.1076 381.078 75.1293C381.501 76.151 381.719 77.2461 381.719 78.352V78.8537C381.719 81.0864 380.833 83.2277 379.254 84.8064C377.676 86.3852 375.536 87.2721 373.304 87.2721H201.51C199.278 87.2721 197.137 88.1591 195.559 89.7378C193.981 91.3166 193.094 93.4579 193.094 95.6906V96.1922C193.094 97.2975 193.312 98.392 193.735 99.4131C194.158 100.434 194.778 101.362 195.559 102.143C196.341 102.925 197.269 103.544 198.29 103.967C199.311 104.389 200.405 104.607 201.51 104.606H215.575C217.807 104.606 219.947 105.493 221.526 107.072C223.104 108.65 223.99 110.792 223.99 113.024V113.526C223.99 115.759 223.104 117.9 221.526 119.479C219.947 121.058 217.807 121.944 215.575 121.944H9.3695C8.2646 121.944 7.17051 121.727 6.14978 121.304C5.12905 120.88 4.20167 120.26 3.42061 119.478C2.63955 118.697 2.02012 117.769 1.59773 116.747C1.17534 115.726 0.958267 114.631 0.958894 113.526V113.024C0.958267 111.919 1.17534 110.824 1.59773 109.803C2.02012 108.782 2.63955 107.854 3.42061 107.072C4.20167 106.29 5.12905 105.67 6.14978 105.247C7.17051 104.824 8.2646 104.606 9.3695 104.606H118.879C119.984 104.607 121.078 104.389 122.099 103.967C123.119 103.544 124.047 102.924 124.828 102.143C125.609 101.362 126.229 100.434 126.651 99.4127C127.073 98.3917 127.291 97.2973 127.29 96.1922V96.1922Z" fill="#F8F9F4"/>
</g>
</svg>
