<svg width="1165" height="386" viewBox="0 0 1165 386" fill="none" xmlns="http://www.w3.org/2000/svg">
<g opacity="0.93">
<path opacity="0.93" d="M94.63 131.013H86.75C77.0187 131.013 69.13 138.903 69.13 148.635V149.685C69.13 159.417 77.0187 167.307 86.75 167.307H94.63C104.361 167.307 112.25 159.417 112.25 149.685V148.635C112.25 138.903 104.361 131.013 94.63 131.013Z" fill="#F8F9F4"/>
<path opacity="0.93" d="M714.64 203.59H668.37C658.639 203.59 650.75 211.48 650.75 221.212V222.262C650.75 231.994 658.639 239.884 668.37 239.884H714.64C724.371 239.884 732.26 231.994 732.26 222.262V221.212C732.26 211.48 724.371 203.59 714.64 203.59Z" fill="#F8F9F4"/>
<path opacity="0.93" d="M176.14 276.168H129.87C120.139 276.168 112.25 284.057 112.25 293.789V294.84C112.25 304.572 120.139 312.461 129.87 312.461H176.14C185.871 312.461 193.76 304.572 193.76 294.84V293.789C193.76 284.057 185.871 276.168 176.14 276.168Z" fill="#F8F9F4"/>
<path opacity="0.93" d="M673.62 348.745H627.35C617.619 348.745 609.73 356.634 609.73 366.367V367.417C609.73 377.149 617.619 385.039 627.35 385.039H673.62C683.351 385.039 691.24 377.149 691.24 367.417V366.367C691.24 356.634 683.351 348.745 673.62 348.745Z" fill="#F8F9F4"/>
<path opacity="0.93" d="M265.28 331.133V330.083C265.281 327.769 264.827 325.478 263.942 323.34C263.058 321.202 261.761 319.26 260.126 317.623C258.49 315.987 256.549 314.689 254.411 313.803C252.274 312.917 249.983 312.461 247.67 312.461V312.461C242.997 312.461 238.515 310.605 235.211 307.3C231.906 303.995 230.05 299.513 230.05 294.84V293.789C230.05 289.116 231.906 284.634 235.211 281.329C238.515 278.024 242.997 276.168 247.67 276.168H329.67C331.983 276.169 334.274 275.714 336.412 274.83C338.55 273.945 340.492 272.648 342.129 271.013C343.765 269.377 345.063 267.435 345.949 265.298C346.834 263.161 347.29 260.87 347.29 258.556V257.496C347.29 255.182 346.834 252.891 345.949 250.754C345.063 248.616 343.765 246.674 342.129 245.039C340.492 243.403 338.55 242.106 336.412 241.222C334.274 240.337 331.983 239.883 329.67 239.884H129.87C125.197 239.884 120.715 238.027 117.411 234.723C114.106 231.418 112.25 226.936 112.25 222.262V221.212C112.25 216.539 114.106 212.056 117.411 208.752C120.715 205.447 125.197 203.59 129.87 203.59H434.35C439.02 203.598 443.501 201.752 446.811 198.457C450.12 195.163 451.987 190.689 452 186.019V185.019C452 182.705 451.544 180.414 450.658 178.276C449.773 176.139 448.475 174.197 446.839 172.562C445.202 170.926 443.26 169.629 441.122 168.745C438.984 167.86 436.693 167.405 434.38 167.407H170.89C166.217 167.407 161.735 165.55 158.431 162.245C155.126 158.941 153.27 154.459 153.27 149.785V148.785C153.25 146.458 153.691 144.151 154.568 141.995C155.445 139.84 156.739 137.88 158.377 136.227C160.016 134.575 161.965 133.264 164.112 132.369C166.26 131.474 168.563 131.013 170.89 131.013H682C686.673 131.013 691.155 132.87 694.459 136.174C697.763 139.479 699.62 143.961 699.62 148.635V149.635C699.626 151.953 699.176 154.25 698.293 156.394C697.41 158.538 696.114 160.486 694.477 162.128C692.84 163.769 690.895 165.072 688.754 165.961C686.613 166.849 684.318 167.307 682 167.307H539.53C537.217 167.305 534.925 167.76 532.788 168.644C530.65 169.529 528.708 170.826 527.071 172.462C525.435 174.097 524.137 176.039 523.251 178.176C522.366 180.314 521.91 182.605 521.91 184.919V185.919C521.91 190.592 523.766 195.074 527.071 198.379C530.375 201.684 534.857 203.54 539.53 203.54H600C602.313 203.54 604.604 203.996 606.741 204.882C608.878 205.768 610.82 207.066 612.456 208.702C614.091 210.339 615.388 212.281 616.272 214.419C617.157 216.557 617.611 218.848 617.61 221.162V222.212C617.618 224.53 617.168 226.827 616.287 228.97C615.405 231.114 614.109 233.063 612.473 234.704C610.837 236.346 608.893 237.649 606.753 238.538C604.612 239.427 602.318 239.884 600 239.884H555.82C553.507 239.883 551.216 240.337 549.079 241.222C546.942 242.107 545 243.404 543.365 245.039C541.729 246.675 540.432 248.617 539.548 250.754C538.663 252.892 538.209 255.183 538.21 257.496V258.556C538.209 260.869 538.663 263.16 539.548 265.297C540.432 267.435 541.729 269.377 543.365 271.012C545 272.648 546.942 273.945 549.079 274.83C551.216 275.714 553.507 276.169 555.82 276.168H780.37C782.685 276.166 784.977 276.621 787.116 277.506C789.255 278.391 791.198 279.689 792.836 281.325C794.473 282.962 795.772 284.905 796.658 287.044C797.544 289.182 798 291.474 798 293.789V294.84C798 299.513 796.143 303.995 792.839 307.3C789.535 310.605 785.053 312.461 780.38 312.461H420.68C416.007 312.461 411.525 314.318 408.221 317.623C404.916 320.927 403.06 325.409 403.06 330.083V331.133C403.06 333.447 403.516 335.738 404.401 337.875C405.287 340.013 406.585 341.955 408.221 343.59C409.858 345.226 411.8 346.523 413.938 347.407C416.075 348.292 418.367 348.746 420.68 348.745H450.13C454.803 348.745 459.285 350.602 462.589 353.906C465.894 357.211 467.75 361.693 467.75 366.367V367.417C467.75 372.09 465.894 376.573 462.589 379.877C459.285 383.182 454.803 385.039 450.13 385.039H18.38C16.0666 385.039 13.7758 384.583 11.6386 383.697C9.50142 382.811 7.55969 381.513 5.92432 379.877C4.28895 378.24 2.992 376.298 2.10761 374.16C1.22321 372.022 0.768709 369.73 0.770022 367.417V366.367C0.768709 364.053 1.22321 361.762 2.10761 359.624C2.992 357.486 4.28895 355.543 5.92432 353.907C7.55969 352.27 9.50142 350.972 11.6386 350.087C13.7758 349.201 16.0666 348.745 18.38 348.745H247.67C249.983 348.746 252.273 348.292 254.411 347.407C256.548 346.522 258.49 345.225 260.125 343.589C261.761 341.954 263.058 340.012 263.942 337.874C264.827 335.737 265.281 333.446 265.28 331.133V331.133Z" fill="#F8F9F4"/>
</g>
<g opacity="0.96">
<path opacity="0.96" d="M783.63 0H775.75C766.019 0 758.13 7.88953 758.13 17.6218V18.6719C758.13 28.4041 766.019 36.2936 775.75 36.2936H783.63C793.361 36.2936 801.25 28.4041 801.25 18.6719V17.6218C801.25 7.88953 793.361 0 783.63 0Z" fill="#F8F9F4"/>
<path opacity="0.96" d="M865.14 145.155H818.87C809.139 145.155 801.25 153.044 801.25 162.776V163.826C801.25 173.559 809.139 181.448 818.87 181.448H865.14C874.871 181.448 882.76 173.559 882.76 163.826V162.776C882.76 153.044 874.871 145.155 865.14 145.155Z" fill="#F8F9F4"/>
<path opacity="0.96" d="M954.28 200.12V199.12C954.281 196.806 953.827 194.515 952.942 192.377C952.058 190.239 950.761 188.296 949.126 186.66C947.49 185.024 945.549 183.725 943.411 182.84C941.274 181.954 938.983 181.498 936.67 181.498V181.498C931.997 181.498 927.515 179.642 924.211 176.337C920.906 173.032 919.05 168.55 919.05 163.876V162.826C919.05 158.153 920.906 153.671 924.211 150.366C927.515 147.061 931.997 145.205 936.67 145.205H1018.67C1020.98 145.206 1023.27 144.751 1025.41 143.867C1027.55 142.982 1029.49 141.685 1031.13 140.05C1032.76 138.414 1034.06 136.472 1034.95 134.335C1035.83 132.197 1036.29 129.906 1036.29 127.593V126.533C1036.29 124.219 1035.83 121.928 1034.95 119.791C1034.06 117.653 1032.76 115.711 1031.13 114.076C1029.49 112.44 1027.55 111.143 1025.41 110.259C1023.27 109.374 1020.98 108.92 1018.67 108.921H818.87C814.197 108.921 809.715 107.064 806.411 103.76C803.106 100.455 801.25 95.9727 801.25 91.2991V90.299C801.25 85.6254 803.106 81.1433 806.411 77.8386C809.715 74.5338 814.197 72.6773 818.87 72.6773H1123.35C1125.67 72.6812 1127.97 72.2267 1130.11 71.3398C1132.26 70.4528 1134.21 69.151 1135.85 67.5089C1137.49 65.8669 1138.79 63.9171 1139.67 61.7713C1140.55 59.6256 1141.01 57.3263 1141 55.0055V53.9054C1141 51.5917 1140.54 49.3008 1139.66 47.1633C1138.77 45.0259 1137.47 43.084 1135.84 41.4485C1134.2 39.8129 1132.26 38.5159 1130.12 37.6314C1127.98 36.7469 1125.69 36.2923 1123.38 36.2936H859.89C855.217 36.2936 850.735 34.4371 847.431 31.1323C844.126 27.8276 842.27 23.3454 842.27 18.6719V17.6218C842.27 12.9482 844.126 8.46602 847.431 5.16129C850.735 1.85657 855.217 0 859.89 0L1371 0C1375.67 0 1380.15 1.85657 1383.46 5.16129C1386.76 8.46602 1388.62 12.9482 1388.62 17.6218V18.6719C1388.62 23.3454 1386.76 27.8276 1383.46 31.1323C1380.15 34.4371 1375.67 36.2936 1371 36.2936H1228.53C1226.22 36.2923 1223.93 36.7469 1221.79 37.6314C1219.65 38.5159 1217.71 39.8129 1216.07 41.4485C1214.44 43.084 1213.14 45.0259 1212.25 47.1633C1211.37 49.3008 1210.91 51.5917 1210.91 53.9054V55.0055C1210.91 59.6791 1212.77 64.1612 1216.07 67.466C1219.38 70.7707 1223.86 72.6273 1228.53 72.6273H1289C1291.31 72.6273 1293.6 73.0831 1295.74 73.9688C1297.88 74.8545 1299.82 76.1527 1301.46 77.7892C1303.09 79.4256 1304.39 81.3683 1305.27 83.5062C1306.16 85.6441 1306.61 87.9354 1306.61 90.249V91.2491C1306.61 93.5628 1306.16 95.854 1305.27 97.9919C1304.39 100.13 1303.09 102.073 1301.46 103.709C1299.82 105.345 1297.88 106.644 1295.74 107.529C1293.6 108.415 1291.31 108.871 1289 108.871H1244.82C1242.51 108.87 1240.22 109.324 1238.08 110.209C1235.94 111.093 1234 112.391 1232.36 114.026C1230.73 115.662 1229.43 117.604 1228.55 119.741C1227.66 121.879 1227.21 124.169 1227.21 126.483V127.543C1227.21 129.856 1227.66 132.147 1228.55 134.284C1229.43 136.421 1230.73 138.363 1232.36 139.999C1234 141.635 1235.94 142.932 1238.08 143.817C1240.22 144.701 1242.51 145.156 1244.82 145.154H1469.37C1471.68 145.153 1473.98 145.608 1476.12 146.493C1478.25 147.378 1480.2 148.676 1481.84 150.312C1483.47 151.949 1484.77 153.892 1485.66 156.03C1486.54 158.169 1487 160.461 1487 162.776V163.826C1487 166.14 1486.54 168.432 1485.66 170.57C1484.77 172.708 1483.48 174.651 1481.84 176.287C1480.2 177.923 1478.26 179.221 1476.12 180.107C1473.99 180.992 1471.69 181.448 1469.38 181.448H1109.68C1105.01 181.448 1100.53 183.305 1097.22 186.609C1093.92 189.914 1092.06 194.396 1092.06 199.07V200.07C1092.06 202.384 1092.52 204.675 1093.4 206.812C1094.29 208.949 1095.59 210.891 1097.22 212.527C1098.86 214.162 1100.8 215.46 1102.94 216.344C1105.08 217.228 1107.37 217.683 1109.68 217.682H1139.13C1143.8 217.682 1148.28 219.538 1151.59 222.843C1154.89 226.148 1156.75 230.63 1156.75 235.304V236.304C1156.76 238.626 1156.32 240.928 1155.44 243.078C1154.56 245.227 1153.26 247.182 1151.62 248.829C1149.99 250.476 1148.04 251.783 1145.9 252.675C1143.75 253.566 1141.45 254.025 1139.13 254.025H707.38C705.067 254.025 702.776 253.57 700.639 252.684C698.501 251.798 696.56 250.5 694.924 248.863C693.289 247.227 691.992 245.284 691.108 243.146C690.223 241.009 689.769 238.717 689.77 236.404V235.404C689.769 233.09 690.223 230.799 691.108 228.661C691.992 226.523 693.289 224.58 694.924 222.944C696.56 221.307 698.501 220.009 700.639 219.123C702.776 218.238 705.067 217.782 707.38 217.782H936.67C938.987 217.783 941.282 217.327 943.422 216.439C945.563 215.551 947.507 214.25 949.143 212.609C950.779 210.968 952.075 209.02 952.957 206.877C953.838 204.734 954.288 202.437 954.28 200.12V200.12Z" fill="#F8F9F4"/>
</g>
</svg>
