<svg width="585" height="187" viewBox="0 0 585 187" fill="none" xmlns="http://www.w3.org/2000/svg">
<path opacity="0.92" d="M94.9887 53.1864H61.0808C53.9495 53.1864 48.1685 58.968 48.1685 66.1001V66.8696C48.1685 74.0016 53.9495 79.7833 61.0808 79.7833H94.9887C102.12 79.7833 107.901 74.0016 107.901 66.8696V66.1001C107.901 58.968 102.12 53.1864 94.9887 53.1864Z" fill="#07213F"/>
<path opacity="0.92" d="M125.049 159.559H91.1413C84.01 159.559 78.2289 165.341 78.2289 172.473V173.243C78.2289 180.375 84.01 186.156 91.1413 186.156H125.049C132.18 186.156 137.962 180.375 137.962 173.243V172.473C137.962 165.341 132.18 159.559 125.049 159.559Z" fill="#07213F"/>
<path d="M390.383 146.653V145.883C390.383 142.458 391.744 139.174 394.165 136.752C396.587 134.33 399.871 132.97 403.296 132.97C406.72 132.97 410.005 131.609 412.426 129.187C414.848 126.766 416.208 123.481 416.208 120.056V119.323C416.208 115.898 414.848 112.614 412.426 110.192C410.005 107.77 406.72 106.409 403.296 106.409H343.204C341.509 106.41 339.83 106.077 338.264 105.429C336.698 104.781 335.275 103.83 334.077 102.631C332.878 101.433 331.928 100.01 331.279 98.4433C330.631 96.877 330.298 95.1983 330.299 93.5031V92.7263C330.298 91.0311 330.631 89.3524 331.279 87.7861C331.928 86.2198 332.878 84.7966 334.077 83.598C335.275 82.3993 336.698 81.4487 338.264 80.8004C339.83 80.1521 341.509 79.8189 343.204 79.8199H489.622C491.318 79.8199 492.996 79.4858 494.563 78.8368C496.129 78.1877 497.552 77.2364 498.75 76.0371C499.949 74.8379 500.899 73.4143 501.547 71.8476C502.195 70.2808 502.528 68.6018 502.527 66.9063V66.1367C502.528 64.4412 502.195 62.7621 501.547 61.1954C500.899 59.6287 499.949 58.2051 498.75 57.0058C497.552 55.8066 496.129 54.8552 494.563 54.2062C492.996 53.5571 491.318 53.223 489.622 53.223H266.484C264.789 53.223 263.11 52.889 261.544 52.2399C259.978 51.5909 258.555 50.6395 257.357 49.4403C256.158 48.241 255.208 46.8174 254.56 45.2507C253.912 43.684 253.579 42.0049 253.579 40.3094V39.5032C253.579 37.808 253.912 36.1293 254.56 34.563C255.208 32.9967 256.159 31.5736 257.357 30.3749C258.556 29.1762 259.979 28.2256 261.545 27.5773C263.111 26.9291 264.789 26.5959 266.484 26.5969H459.562C461.257 26.5969 462.936 26.2628 464.502 25.6137C466.068 24.9647 467.491 24.0133 468.69 22.8141C469.888 21.6148 470.839 20.1912 471.487 18.6245C472.135 17.0578 472.468 15.3787 472.467 13.6832V12.9137C472.468 11.2182 472.135 9.53908 471.487 7.97237C470.839 6.40565 469.888 4.982 468.69 3.78276C467.491 2.58352 466.068 1.63219 464.502 0.983132C462.936 0.33407 461.257 -2.73369e-07 459.562 0H84.971C83.2757 -2.73369e-07 81.597 0.33407 80.0308 0.983132C78.4646 1.63219 77.0416 2.58352 75.8432 3.78276C74.6447 4.982 73.6944 6.40565 73.0462 7.97237C72.3981 9.53908 72.065 11.2182 72.066 12.9137V13.6832C72.065 15.3787 72.3981 17.0578 73.0462 18.6245C73.6944 20.1912 74.6447 21.6148 75.8432 22.8141C77.0416 24.0133 78.4646 24.9647 80.0308 25.6137C81.597 26.2628 83.2757 26.5969 84.971 26.5969H189.413C191.108 26.5959 192.787 26.9291 194.353 27.5773C195.919 28.2256 197.342 29.1762 198.541 30.3749C199.739 31.5736 200.69 32.9967 201.338 34.563C201.986 36.1293 202.319 37.808 202.318 39.5032V40.3094C202.319 42.0049 201.986 43.684 201.338 45.2507C200.69 46.8174 199.74 48.241 198.541 49.4403C197.343 50.6395 195.92 51.5909 194.353 52.2399C192.787 52.889 191.109 53.223 189.413 53.223H145.092C141.667 53.223 138.383 54.5836 135.962 57.0054C133.54 59.4272 132.18 62.7118 132.18 66.1367V66.9063C132.18 70.3312 133.54 73.6158 135.962 76.0376C138.383 78.4594 141.667 79.8199 145.092 79.8199H177.461C179.156 79.8189 180.835 80.1521 182.402 80.8003C183.968 81.4484 185.392 82.399 186.591 83.5975C187.79 84.7961 188.741 86.2192 189.39 87.7855C190.039 89.3519 190.373 91.0308 190.373 92.7263V93.5031C190.373 95.1986 190.039 96.8775 189.39 98.4438C188.741 100.01 187.79 101.433 186.591 102.632C185.392 103.83 183.968 104.781 182.402 105.429C180.835 106.077 179.156 106.41 177.461 106.409H12.905C11.2097 106.409 9.53101 106.744 7.96482 107.393C6.39863 108.042 4.97564 108.993 3.7772 110.192C2.57876 111.391 1.62837 112.815 0.980263 114.382C0.332155 115.949 -0.000960629 117.628 2.08073e-06 119.323V120.056C-0.000960629 121.752 0.332155 123.431 0.980263 124.997C1.62837 126.564 2.57876 127.988 3.7772 129.187C4.97564 130.386 6.39863 131.337 7.96482 131.987C9.53101 132.636 11.2097 132.97 12.905 132.97H276.502C279.927 132.97 283.211 134.33 285.633 136.752C288.054 139.174 289.415 142.458 289.415 145.883V146.653C289.415 148.348 289.081 150.027 288.432 151.594C287.783 153.16 286.831 154.583 285.632 155.782C284.433 156.98 283.009 157.931 281.443 158.579C279.876 159.227 278.198 159.56 276.502 159.559H254.928C253.231 159.557 251.55 159.89 249.982 160.538C248.414 161.186 246.989 162.137 245.788 163.336C244.587 164.536 243.635 165.96 242.985 167.528C242.335 169.095 242.001 170.776 242.001 172.473V173.206C241.996 174.906 242.327 176.59 242.975 178.162C243.622 179.734 244.574 181.163 245.775 182.366C246.976 183.569 248.403 184.523 249.973 185.174C251.544 185.824 253.228 186.158 254.928 186.156H571.318C574.742 186.156 578.027 184.796 580.448 182.374C582.87 179.952 584.23 176.667 584.23 173.242V172.51C584.23 169.085 582.87 165.8 580.448 163.378C578.027 160.956 574.742 159.596 571.318 159.596H403.296C401.597 159.597 399.915 159.262 398.346 158.612C396.777 157.962 395.352 157.008 394.153 155.805C392.953 154.603 392.003 153.175 391.356 151.605C390.709 150.034 390.378 148.351 390.383 146.653Z" fill="#07213F"/>
</svg>
