<svg width="798" height="255" viewBox="0 0 798 255" fill="none" xmlns="http://www.w3.org/2000/svg">
<g opacity="0.92">
<path opacity="0.92" d="M129.62 72.5773H83.3497C73.6185 72.5773 65.7297 80.4668 65.7297 90.199V91.2491C65.7297 100.981 73.6185 108.871 83.3497 108.871H129.62C139.351 108.871 147.24 100.981 147.24 91.2491V90.199C147.24 80.4668 139.351 72.5773 129.62 72.5773Z" fill="#07213F"/>
<path opacity="0.92" d="M170.64 217.732H124.37C114.639 217.732 106.75 225.621 106.75 235.354V236.404C106.75 246.136 114.639 254.025 124.37 254.025H170.64C180.371 254.025 188.26 246.136 188.26 236.404V235.354C188.26 225.621 180.371 217.732 170.64 217.732Z" fill="#07213F"/>
<path opacity="0.92" d="M532.71 200.12V199.07C532.71 194.396 534.567 189.914 537.871 186.609C541.175 183.305 545.657 181.448 550.33 181.448C555.003 181.448 559.485 179.592 562.789 176.287C566.094 172.982 567.95 168.5 567.95 163.826V162.826C567.95 158.153 566.094 153.67 562.789 150.366C559.485 147.061 555.003 145.204 550.33 145.204H468.33C466.017 145.206 463.727 144.751 461.589 143.867C459.452 142.982 457.511 141.685 455.875 140.049C454.24 138.413 452.942 136.471 452.058 134.334C451.173 132.197 450.719 129.906 450.72 127.593V126.533C450.719 124.219 451.173 121.929 452.058 119.791C452.942 117.654 454.24 115.712 455.875 114.076C457.511 112.441 459.452 111.143 461.589 110.259C463.727 109.374 466.017 108.92 468.33 108.921H668.13C670.443 108.921 672.734 108.465 674.871 107.579C677.009 106.694 678.95 105.395 680.586 103.759C682.221 102.122 683.518 100.18 684.402 98.0419C685.287 95.904 685.741 93.6128 685.74 91.2991V90.249C685.741 87.9353 685.287 85.6441 684.402 83.5062C683.518 81.3683 682.221 79.4256 680.586 77.7891C678.95 76.1527 677.009 74.8545 674.871 73.9688C672.734 73.0831 670.443 72.6272 668.13 72.6272H363.64C361.327 72.6272 359.036 72.1714 356.899 71.2857C354.762 70.4 352.82 69.1018 351.184 67.4653C349.549 65.8289 348.252 63.8862 347.368 61.7483C346.483 59.6104 346.029 57.3191 346.03 55.0055V53.9054C346.029 51.5922 346.483 49.3014 347.368 47.1641C348.252 45.0267 349.549 43.0847 351.185 41.449C352.82 39.8134 354.762 38.5162 356.899 37.6316C359.037 36.7469 361.327 36.2923 363.64 36.2936H627.11C629.423 36.2936 631.714 35.8377 633.851 34.952C635.989 34.0663 637.93 32.7682 639.566 31.1317C641.201 29.4952 642.498 27.5526 643.382 25.4147C644.267 23.2768 644.721 20.9855 644.72 18.6719V17.6218C644.721 15.3081 644.267 13.0169 643.382 10.879C642.498 8.74104 641.201 6.79835 639.566 5.16189C637.93 3.52543 635.989 2.22726 633.851 1.34156C631.714 0.455866 629.423 -3.73034e-07 627.11 0H115.95C113.637 -3.73034e-07 111.346 0.455866 109.209 1.34156C107.071 2.22726 105.13 3.52543 103.494 5.16189C101.859 6.79835 100.562 8.74104 99.6776 10.879C98.7932 13.0169 98.3387 15.3081 98.34 17.6218V18.6719C98.3387 20.9855 98.7932 23.2768 99.6776 25.4147C100.562 27.5526 101.859 29.4952 103.494 31.1317C105.13 32.7682 107.071 34.0663 109.209 34.952C111.346 35.8377 113.637 36.2936 115.95 36.2936H258.47C260.783 36.2923 263.073 36.7469 265.211 37.6316C267.348 38.5162 269.29 39.8134 270.925 41.449C272.561 43.0847 273.858 45.0267 274.742 47.1641C275.627 49.3014 276.081 51.5922 276.08 53.9054V55.0055C276.081 57.3191 275.627 59.6104 274.742 61.7483C273.858 63.8862 272.561 65.8289 270.926 67.4653C269.29 69.1018 267.349 70.4 265.211 71.2857C263.074 72.1714 260.783 72.6272 258.47 72.6272H197.99C193.317 72.6272 188.835 74.4838 185.531 77.7885C182.226 81.0933 180.37 85.5754 180.37 90.249V91.2991C180.37 95.9727 182.226 100.455 185.531 103.76C188.835 107.064 193.317 108.921 197.99 108.921H242.16C244.473 108.92 246.764 109.374 248.902 110.259C251.04 111.143 252.982 112.44 254.619 114.076C256.255 115.711 257.553 117.653 258.439 119.791C259.324 121.928 259.78 124.219 259.78 126.533V127.593C259.78 129.906 259.324 132.197 258.439 134.335C257.553 136.472 256.255 138.414 254.619 140.05C252.982 141.685 251.04 142.982 248.902 143.867C246.764 144.751 244.473 145.206 242.16 145.204H17.61C15.2966 145.204 13.0059 145.66 10.8687 146.546C8.73146 147.432 6.78967 148.73 5.1543 150.366C3.51893 152.003 2.22205 153.946 1.33765 156.083C0.453252 158.221 -0.00131086 160.513 2.83933e-06 162.826V163.826C-0.00131086 166.14 0.453252 168.431 1.33765 170.569C2.22205 172.707 3.51893 174.65 5.1543 176.286C6.78967 177.923 8.73146 179.221 10.8687 180.107C13.0059 180.992 15.2966 181.448 17.61 181.448H377.31C381.983 181.448 386.465 183.305 389.769 186.609C393.074 189.914 394.93 194.396 394.93 199.07V200.12C394.93 202.434 394.474 204.725 393.589 206.862C392.703 208.999 391.405 210.941 389.769 212.577C388.132 214.212 386.19 215.509 384.052 216.394C381.914 217.278 379.624 217.733 377.31 217.732H347.87C345.554 217.729 343.261 218.183 341.121 219.067C338.981 219.952 337.036 221.249 335.398 222.886C333.76 224.523 332.46 226.466 331.573 228.605C330.686 230.745 330.23 233.038 330.23 235.353V236.354C330.223 238.674 330.675 240.972 331.559 243.117C332.443 245.262 333.741 247.212 335.38 248.853C337.019 250.495 338.966 251.797 341.109 252.685C343.253 253.572 345.55 254.028 347.87 254.025H779.61C784.283 254.025 788.765 252.169 792.069 248.864C795.374 245.559 797.23 241.077 797.23 236.404V235.403C797.23 230.73 795.374 226.248 792.069 222.943C788.765 219.638 784.283 217.782 779.61 217.782H550.33C548.013 217.783 545.717 217.327 543.576 216.439C541.435 215.552 539.491 214.25 537.854 212.609C536.217 210.968 534.92 209.021 534.037 206.877C533.154 204.734 532.703 202.438 532.71 200.12Z" fill="#07213F"/>
</g>
</svg>
