<svg width="633" height="255" viewBox="0 0 633 255" fill="none" xmlns="http://www.w3.org/2000/svg">
<path opacity="0.92" d="M129.62 72.5773H83.35C73.6187 72.5773 65.73 80.4668 65.73 90.199V91.2491C65.73 100.981 73.6187 108.871 83.35 108.871H129.62C139.351 108.871 147.24 100.981 147.24 91.2491V90.199C147.24 80.4668 139.351 72.5773 129.62 72.5773Z" fill="#152337"/>
<path opacity="0.92" d="M668.12 145.155H621.85C612.119 145.155 604.23 153.044 604.23 162.776V163.826C604.23 173.559 612.119 181.448 621.85 181.448H668.12C677.851 181.448 685.74 173.559 685.74 163.826V162.776C685.74 153.044 677.851 145.155 668.12 145.155Z" fill="#152337"/>
<path opacity="0.92" d="M170.64 217.732H124.37C114.639 217.732 106.75 225.621 106.75 235.353V236.404C106.75 246.136 114.639 254.025 124.37 254.025H170.64C180.371 254.025 188.26 246.136 188.26 236.404V235.353C188.26 225.621 180.371 217.732 170.64 217.732Z" fill="#152337"/>
<path d="M532.71 200.12V199.07C532.71 194.396 534.566 189.914 537.871 186.609C541.175 183.305 545.657 181.448 550.33 181.448C552.644 181.448 554.935 180.992 557.073 180.107C559.211 179.221 561.153 177.923 562.789 176.287C564.425 174.651 565.723 172.708 566.609 170.57C567.494 168.432 567.95 166.141 567.95 163.826V162.826C567.95 158.153 566.094 153.671 562.789 150.366C559.485 147.061 555.003 145.205 550.33 145.205H468.33C466.017 145.206 463.727 144.751 461.589 143.867C459.452 142.982 457.51 141.685 455.875 140.049C454.239 138.413 452.942 136.471 452.058 134.334C451.173 132.197 450.719 129.906 450.72 127.593V126.533C450.719 124.22 451.173 121.929 452.058 119.791C452.942 117.654 454.239 115.712 455.875 114.076C457.51 112.441 459.452 111.143 461.589 110.259C463.727 109.374 466.017 108.92 468.33 108.921H668.13C670.443 108.921 672.734 108.465 674.871 107.579C677.009 106.694 678.95 105.395 680.586 103.759C682.221 102.123 683.518 100.18 684.402 98.0419C685.287 95.904 685.741 93.6128 685.74 91.2991V90.299C685.741 87.9854 685.287 85.6942 684.402 83.5562C683.518 81.4183 682.221 79.4756 680.586 77.8392C678.95 76.2027 677.009 74.9045 674.871 74.0188C672.734 73.1331 670.443 72.6773 668.13 72.6773H363.64C361.322 72.6773 359.028 72.2198 356.887 71.3309C354.747 70.4421 352.803 69.1395 351.167 67.4977C349.531 65.856 348.235 63.9074 347.353 61.7637C346.472 59.62 346.022 57.3234 346.03 55.0055V53.9054C346.029 51.5923 346.483 49.3014 347.368 47.1641C348.252 45.0267 349.549 43.0848 351.185 41.4491C352.82 39.8134 354.762 38.5162 356.899 37.6316C359.037 36.747 361.327 36.2923 363.64 36.2936H627.11C629.423 36.2936 631.714 35.8378 633.851 34.9521C635.989 34.0664 637.93 32.7682 639.566 31.1317C641.201 29.4953 642.498 27.5526 643.382 25.4147C644.267 23.2767 644.721 20.9855 644.72 18.6719V17.6718C644.728 15.3539 644.278 13.0573 643.397 10.9136C642.515 8.76994 641.219 6.8213 639.583 5.17954C637.947 3.53777 636.003 2.23515 633.863 1.34633C631.723 0.457502 629.428 -1.34535e-05 627.11 2.96752e-10H115.95C113.637 -3.72738e-07 111.346 0.455866 109.209 1.34157C107.071 2.22726 105.13 3.52543 103.494 5.16189C101.859 6.79836 100.562 8.74105 99.6776 10.879C98.7932 13.0169 98.3387 15.3081 98.34 17.6218V18.6219C98.3387 20.9355 98.7932 23.2268 99.6776 25.3647C100.562 27.5026 101.859 29.4453 103.494 31.0817C105.13 32.7182 107.071 34.0164 109.209 34.9021C111.346 35.7878 113.637 36.2436 115.95 36.2436H258.47C260.783 36.2423 263.073 36.697 265.211 37.5816C267.348 38.4662 269.29 39.7634 270.925 41.3991C272.561 43.0347 273.858 44.9768 274.742 47.1141C275.627 49.2515 276.081 51.5422 276.08 53.8554V55.0055C276.081 57.3192 275.627 59.6104 274.742 61.7483C273.858 63.8862 272.561 65.8289 270.926 67.4654C269.29 69.1019 267.349 70.4 265.211 71.2857C263.074 72.1714 260.783 72.6273 258.47 72.6273H197.99C193.317 72.6273 188.835 74.4838 185.531 77.7886C182.226 81.0933 180.37 85.5755 180.37 90.249V91.2491C180.37 95.9227 182.226 100.405 185.531 103.71C188.835 107.014 193.317 108.871 197.99 108.871H242.16C244.473 108.87 246.764 109.324 248.902 110.209C251.04 111.093 252.982 112.39 254.619 114.026C256.255 115.661 257.553 117.603 258.439 119.741C259.324 121.878 259.78 124.169 259.78 126.483V127.543C259.78 129.856 259.324 132.147 258.439 134.285C257.553 136.422 256.255 138.364 254.619 140C252.982 141.635 251.04 142.932 248.902 143.817C246.764 144.701 244.473 145.156 242.16 145.155H17.61C15.2966 145.155 13.0058 145.61 10.8686 146.496C8.7314 147.382 6.78967 148.68 5.1543 150.316C3.51893 151.953 2.22199 153.896 1.33759 156.034C0.453191 158.171 -0.00131086 160.463 2.83971e-06 162.776V163.776C-0.00131086 166.09 0.453191 168.381 1.33759 170.519C2.22199 172.657 3.51893 174.6 5.1543 176.236C6.78967 177.873 8.7314 179.171 10.8686 180.057C13.0058 180.942 15.2966 181.398 17.61 181.398H377.31C381.983 181.398 386.465 183.255 389.769 186.559C393.074 189.864 394.93 194.346 394.93 199.02V200.07C394.93 202.384 394.474 204.675 393.589 206.812C392.703 208.95 391.405 210.891 389.769 212.527C388.132 214.163 386.19 215.46 384.052 216.344C381.914 217.229 379.623 217.683 377.31 217.682H347.87C345.55 217.679 343.253 218.135 341.109 219.022C338.966 219.91 337.019 221.212 335.38 222.854C333.741 224.496 332.443 226.445 331.559 228.59C330.675 230.735 330.223 233.034 330.23 235.354V236.354C330.223 238.674 330.675 240.972 331.559 243.117C332.443 245.262 333.741 247.212 335.38 248.854C337.019 250.495 338.966 251.798 341.109 252.685C343.253 253.573 345.55 254.028 347.87 254.025H779.61C784.283 254.025 788.765 252.169 792.069 248.864C795.374 245.559 797.23 241.077 797.23 236.404V235.404C797.23 230.73 795.374 226.248 792.069 222.943C788.765 219.638 784.283 217.782 779.61 217.782H550.33C548.012 217.783 545.717 217.327 543.576 216.439C541.435 215.552 539.491 214.25 537.854 212.609C536.217 210.969 534.92 209.021 534.037 206.878C533.154 204.734 532.703 202.438 532.71 200.12Z" fill="#152337"/>
</svg>
