<svg width="798" height="255" viewBox="0 0 798 255" fill="none" xmlns="http://www.w3.org/2000/svg">
<g opacity="0.96">
<path opacity="0.96" d="M93.86 0H85.98C76.2487 0 68.36 7.88953 68.36 17.6218V18.6719C68.36 28.4041 76.2487 36.2936 85.98 36.2936H93.86C103.591 36.2936 111.48 28.4041 111.48 18.6719V17.6218C111.48 7.88953 103.591 0 93.86 0Z" fill="#F8F9F4"/>
<path opacity="0.96" d="M175.37 145.155H129.1C119.369 145.155 111.48 153.044 111.48 162.776V163.826C111.48 173.559 119.369 181.448 129.1 181.448H175.37C185.101 181.448 192.99 173.559 192.99 163.826V162.776C192.99 153.044 185.101 145.155 175.37 145.155Z" fill="#F8F9F4"/>
<path opacity="0.96" d="M264.51 200.12V199.12C264.511 196.806 264.057 194.515 263.172 192.377C262.288 190.239 260.991 188.296 259.356 186.66C257.72 185.024 255.779 183.725 253.641 182.84C251.504 181.954 249.213 181.498 246.9 181.498C242.227 181.498 237.745 179.642 234.441 176.337C231.136 173.032 229.28 168.55 229.28 163.876V162.826C229.28 158.153 231.136 153.671 234.441 150.366C237.745 147.061 242.227 145.205 246.9 145.205H328.9C331.213 145.206 333.504 144.751 335.642 143.867C337.78 142.982 339.722 141.685 341.359 140.05C342.995 138.414 344.293 136.472 345.179 134.335C346.064 132.197 346.52 129.906 346.52 127.593V126.533C346.52 124.219 346.064 121.928 345.179 119.791C344.293 117.653 342.995 115.711 341.359 114.076C339.722 112.44 337.78 111.143 335.642 110.259C333.504 109.374 331.213 108.92 328.9 108.921H129.1C124.427 108.921 119.945 107.064 116.641 103.76C113.336 100.455 111.48 95.9727 111.48 91.2991V90.299C111.48 85.6254 113.336 81.1433 116.641 77.8386C119.945 74.5338 124.427 72.6773 129.1 72.6773H433.58C435.901 72.6812 438.199 72.2267 440.344 71.3398C442.488 70.4528 444.436 69.151 446.076 67.5089C447.716 65.8669 449.016 63.9171 449.9 61.7713C450.785 59.6256 451.237 57.3263 451.23 55.0055V53.9054C451.23 51.5917 450.774 49.3008 449.889 47.1633C449.003 45.0259 447.705 43.084 446.069 41.4485C444.432 39.8129 442.49 38.5159 440.352 37.6314C438.214 36.7469 435.923 36.2923 433.61 36.2936H170.12C165.447 36.2936 160.965 34.437 157.661 31.1323C154.356 27.8276 152.5 23.3454 152.5 18.6719V17.6218C152.5 12.9482 154.356 8.46601 157.661 5.16129C160.965 1.85657 165.447 0 170.12 0L681.23 0C685.903 0 690.385 1.85657 693.689 5.16129C696.994 8.46601 698.85 12.9482 698.85 17.6218V18.6719C698.85 23.3454 696.994 27.8276 693.689 31.1323C690.385 34.437 685.903 36.2936 681.23 36.2936H538.76C536.447 36.2923 534.156 36.7469 532.018 37.6314C529.88 38.5159 527.938 39.8129 526.301 41.4485C524.665 43.084 523.367 45.0259 522.481 47.1633C521.596 49.3008 521.14 51.5917 521.14 53.9054V55.0055C521.14 59.6791 522.996 64.1612 526.301 67.466C529.605 70.7707 534.087 72.6273 538.76 72.6273H599.23C601.543 72.6273 603.834 73.0831 605.971 73.9688C608.109 74.8545 610.05 76.1527 611.686 77.7892C613.321 79.4256 614.618 81.3683 615.502 83.5062C616.387 85.6441 616.841 87.9354 616.84 90.249V91.2491C616.841 93.5628 616.387 95.854 615.502 97.9919C614.618 100.13 613.321 102.073 611.686 103.709C610.05 105.345 608.109 106.644 605.971 107.529C603.834 108.415 601.543 108.871 599.23 108.871H555.05C552.737 108.87 550.446 109.324 548.309 110.209C546.172 111.093 544.23 112.391 542.595 114.026C540.959 115.662 539.662 117.604 538.778 119.741C537.893 121.879 537.439 124.169 537.44 126.483V127.543C537.439 129.856 537.893 132.147 538.778 134.284C539.662 136.421 540.959 138.363 542.595 139.999C544.23 141.635 546.172 142.932 548.309 143.817C550.446 144.701 552.737 145.156 555.05 145.154H779.6C781.915 145.153 784.207 145.608 786.346 146.493C788.485 147.378 790.428 148.676 792.066 150.312C793.703 151.949 795.002 153.892 795.888 156.03C796.774 158.169 797.23 160.461 797.23 162.776V163.826C797.23 166.14 796.774 168.432 795.889 170.57C795.003 172.708 793.705 174.65 792.069 176.287C790.433 177.923 788.491 179.221 786.353 180.107C784.215 180.992 781.924 181.448 779.61 181.448H419.91C415.237 181.448 410.755 183.305 407.451 186.609C404.146 189.914 402.29 194.396 402.29 199.07V200.07C402.29 202.384 402.746 204.675 403.631 206.812C404.517 208.949 405.815 210.891 407.451 212.527C409.088 214.162 411.03 215.46 413.168 216.344C415.306 217.228 417.597 217.683 419.91 217.682H449.36C454.033 217.682 458.515 219.538 461.819 222.843C465.124 226.148 466.98 230.63 466.98 235.303V236.304C466.993 238.626 466.547 240.928 465.668 243.078C464.788 245.227 463.492 247.182 461.855 248.829C460.217 250.476 458.27 251.783 456.126 252.674C453.982 253.566 451.682 254.025 449.36 254.025H17.61C15.2966 254.025 13.0059 253.57 10.8687 252.684C8.73146 251.798 6.78967 250.5 5.1543 248.863C3.51893 247.227 2.22205 245.284 1.33765 243.146C0.453252 241.009 -0.00131086 238.717 2.83933e-06 236.404V235.404C-0.00131086 233.09 0.453252 230.799 1.33765 228.661C2.22205 226.523 3.51893 224.58 5.1543 222.944C6.78967 221.307 8.73146 220.009 10.8687 219.123C13.0059 218.238 15.2966 217.782 17.61 217.782H246.9C249.217 217.783 251.512 217.327 253.652 216.439C255.793 215.551 257.737 214.25 259.373 212.609C261.009 210.968 262.305 209.02 263.187 206.877C264.068 204.734 264.518 202.437 264.51 200.12Z" fill="#F8F9F4"/>
</g>
</svg>
