<svg width="798" height="255" viewBox="0 0 798 255" fill="none" xmlns="http://www.w3.org/2000/svg">
<g opacity="0.93">
<path opacity="0.93" d="M93.86 0H85.98C76.2487 0 68.36 7.88953 68.36 17.6218V18.6719C68.36 28.4041 76.2487 36.2936 85.98 36.2936H93.86C103.591 36.2936 111.48 28.4041 111.48 18.6719V17.6218C111.48 7.88953 103.591 0 93.86 0Z" fill="#F8F9F4"/>
<path opacity="0.93" d="M713.87 72.5771H667.6C657.869 72.5771 649.98 80.4667 649.98 90.1989V91.249C649.98 100.981 657.869 108.871 667.6 108.871H713.87C723.601 108.871 731.49 100.981 731.49 91.249V90.1989C731.49 80.4667 723.601 72.5771 713.87 72.5771Z" fill="#F8F9F4"/>
<path opacity="0.93" d="M175.37 145.155H129.1C119.369 145.155 111.48 153.044 111.48 162.776V163.826C111.48 173.559 119.369 181.448 129.1 181.448H175.37C185.101 181.448 192.99 173.559 192.99 163.826V162.776C192.99 153.044 185.101 145.155 175.37 145.155Z" fill="#F8F9F4"/>
<path opacity="0.93" d="M672.85 217.732H626.58C616.849 217.732 608.96 225.621 608.96 235.353V236.404C608.96 246.136 616.849 254.025 626.58 254.025H672.85C682.581 254.025 690.47 246.136 690.47 236.404V235.353C690.47 225.621 682.581 217.732 672.85 217.732Z" fill="#F8F9F4"/>
<path opacity="0.93" d="M264.51 200.12V199.07C264.511 196.756 264.057 194.465 263.172 192.327C262.288 190.189 260.991 188.247 259.356 186.61C257.72 184.974 255.779 183.675 253.641 182.79C251.504 181.904 249.213 181.448 246.9 181.448C242.227 181.448 237.745 179.592 234.441 176.287C231.136 172.982 229.28 168.5 229.28 163.826V162.776C229.28 158.103 231.136 153.621 234.441 150.316C237.745 147.011 242.227 145.155 246.9 145.155H328.9C331.213 145.156 333.504 144.701 335.642 143.817C337.78 142.932 339.722 141.635 341.359 140C342.995 138.364 344.293 136.422 345.179 134.285C346.064 132.147 346.52 129.856 346.52 127.543V126.483C346.52 124.169 346.064 121.878 345.179 119.741C344.293 117.603 342.995 115.661 341.359 114.026C339.722 112.39 337.78 111.093 335.642 110.209C333.504 109.324 331.213 108.87 328.9 108.871H129.1C124.427 108.871 119.945 107.014 116.641 103.71C113.336 100.405 111.48 95.9227 111.48 91.2491V90.199C111.48 85.5255 113.336 81.0433 116.641 77.7386C119.945 74.4338 124.427 72.5773 129.1 72.5773H433.58C438.25 72.5852 442.731 70.739 446.041 67.4443C449.35 64.1495 451.217 59.6756 451.23 55.0055V54.0054C451.23 51.6918 450.774 49.4008 449.888 47.2634C449.003 45.126 447.705 43.184 446.069 41.5485C444.432 39.9129 442.49 38.6159 440.352 37.7314C438.214 36.8469 435.923 36.3923 433.61 36.3936H170.12C165.447 36.3936 160.965 34.5371 157.661 31.2323C154.356 27.9276 152.5 23.4455 152.5 18.7719V17.7718C152.48 15.4451 152.921 13.1375 153.798 10.9821C154.674 8.82683 155.969 6.86648 157.607 5.21422C159.246 3.56197 161.195 2.25053 163.342 1.35559C165.49 0.460647 167.793 -8.4304e-05 170.12 1.15705e-08H681.23C685.903 1.15706e-08 690.385 1.85658 693.689 5.1613C696.993 8.46602 698.85 12.9482 698.85 17.6218V18.6219C698.856 20.9402 698.406 23.237 697.523 25.3808C696.64 27.5245 695.344 29.473 693.707 31.1147C692.07 32.7563 690.125 34.0588 687.984 34.9475C685.843 35.8362 683.548 36.2936 681.23 36.2936H538.76C536.446 36.2923 534.155 36.7469 532.018 37.6314C529.88 38.5159 527.938 39.8129 526.301 41.4485C524.665 43.084 523.367 45.0259 522.481 47.1634C521.596 49.3008 521.14 51.5917 521.14 53.9054V54.9055C521.14 59.5791 522.996 64.0612 526.301 67.366C529.605 70.6707 534.087 72.5273 538.76 72.5273H599.23C601.543 72.5273 603.834 72.9831 605.971 73.8688C608.108 74.7545 610.05 76.0527 611.686 77.6892C613.321 79.3256 614.618 81.2683 615.502 83.4062C616.387 85.5441 616.841 87.8354 616.84 90.149V91.1991C616.848 93.517 616.398 95.8136 615.517 97.9573C614.635 100.101 613.339 102.05 611.703 103.691C610.067 105.333 608.123 106.636 605.983 107.525C603.842 108.413 601.547 108.871 599.23 108.871H555.05C552.737 108.87 550.446 109.324 548.309 110.209C546.172 111.093 544.23 112.391 542.595 114.026C540.959 115.662 539.662 117.604 538.778 119.741C537.893 121.879 537.439 124.169 537.44 126.483V127.543C537.439 129.856 537.893 132.147 538.778 134.284C539.662 136.421 540.959 138.363 542.595 139.999C544.23 141.635 546.172 142.932 548.309 143.817C550.446 144.701 552.737 145.156 555.05 145.155H779.6C781.915 145.153 784.207 145.608 786.346 146.493C788.485 147.378 790.428 148.676 792.066 150.312C793.703 151.949 795.002 153.892 795.888 156.03C796.774 158.169 797.23 160.461 797.23 162.776V163.826C797.23 168.5 795.373 172.982 792.069 176.287C788.765 179.592 784.283 181.448 779.61 181.448H419.91C415.237 181.448 410.755 183.305 407.451 186.609C404.146 189.914 402.29 194.396 402.29 199.07V200.12C402.29 202.434 402.746 204.725 403.631 206.862C404.517 208.999 405.815 210.941 407.451 212.577C409.088 214.213 411.03 215.51 413.168 216.394C415.305 217.279 417.597 217.733 419.91 217.732H449.36C454.033 217.732 458.515 219.588 461.819 222.893C465.124 226.198 466.98 230.68 466.98 235.354V236.404C466.98 241.077 465.124 245.559 461.819 248.864C458.515 252.169 454.033 254.025 449.36 254.025H17.61C15.2966 254.025 13.0058 253.57 10.8686 252.684C8.7314 251.798 6.78967 250.5 5.1543 248.864C3.51893 247.227 2.22199 245.284 1.33759 243.146C0.453191 241.009 -0.00131086 238.717 2.83971e-06 236.404V235.354C-0.00131086 233.04 0.453191 230.749 1.33759 228.611C2.22199 226.473 3.51893 224.53 5.1543 222.894C6.78967 221.257 8.7314 219.959 10.8686 219.073C13.0058 218.188 15.2966 217.732 17.61 217.732H246.9C249.213 217.733 251.503 217.278 253.641 216.394C255.778 215.509 257.719 214.212 259.355 212.576C260.991 210.941 262.288 208.999 263.172 206.861C264.057 204.724 264.511 202.433 264.51 200.12Z" fill="#F8F9F4"/>
</g>
</svg>
